{"title":"Grease[1978]-AC3-5.1-Dvdrip-Maka6358.avi","uid":4872412,"size":1468664801,"categoryP":"video","categoryS":"movies","magnet":"?xt=urn:btih:958a13d39df2296d95cfee0e590c48290fccc8fe&amp;dn=Grease%5B1978%5D-AC3-5.1-Dvdrip-Maka6358.avi&amp;tr=udp%3A%2F%2Ftracker.openbittorrent.com%3A80&amp;tr=udp%3A%2F%2Fopen.demonii.com%3A1337&amp;tr=udp%3A%2F%2Ftracker.coppersurfer.tk%3A6969&amp;tr=udp%3A%2F%2Fexodus.desync.com%3A6969","seeders":1,"leechers":0,"uploader":"Maka6358","files":3,"time":1240914369,"description":"A musical about teens in love in the 50's! It's California, 1959 and greaser Danny Zuko and Australian Sandy Olsson \n\nare in love. They spend time at the beach, but when they go back to school, what either of them don't know is that \n\nthey both now attend Rydell High. Danny's the leader of the T-Birds, a group of black-jacket greasers while Sandy \n\nhangs with the Pink Ladies, a group of pink-wearing girls led by Rizzo. When they clash at Rydell's first pep rally, \n\nDanny isn't the same Danny at the beach. They try to be like each other so they can be together.\n &lt;a href=&quot;\nhttp://www.imdb.com/title/tt0077631/&quot; rel=&quot;nofollow&quot; target=&quot;_NEW&quot;&gt;\nhttp://www.imdb.com/title/tt0077631/&lt;/a&gt;\n\nGeneral\nComplete name                    : Grease[1978]-AC3-5.1-Dvdrip-Maka6358.avi\nFormat                           : AVI\nFormat/Info                      : Audio Video Interleave\nFile size                        : 1.37 GiB\nDuration                         : 1h 45mn\nOverall bit rate                 : 1 848 Kbps\nWriting application              : VirtualDubMod 1.5.4.1 (build 2178/release)\nWriting library                  : VirtualDubMod build 2178/release\n\nVideo\nFormat                           : MPEG-4 Visual\nFormat profile                   : Streaming Video@L1\nFormat settings, BVOP            : Yes\nFormat settings, QPel            : No\nFormat settings, GMC             : No warppoints\nFormat settings, Matrix          : Custom\nCodec ID                         : XVID\nCodec ID/Hint                    : XviD\nDuration                         : 1h 45mn\nBit rate                         : 1 393 Kbps\nWidth                            : 608 pixels\nHeight                           : 256 pixels\nDisplay aspect ratio             : 2.35\nFrame rate                       : 25.000 fps\nResolution                       : 24 bits\nColorimetry                      : 4:2:0\nScan type                        : Progressive\nBits/(Pixel*Frame)               : 0.358\nStream size                      : 1.03 GiB (75%)\nWriting library                  : XviD 1.2.0.dev47 (UTC 2006-11-01)\n\nAudio\nFormat                           : AC-3\nFormat/Info                      : Audio Coding 3\nCodec ID                         : 2000\nDuration                         : 1h 45mn\nBit rate mode                    : Constant\nBit rate                         : 448 Kbps\nChannel(s)                       : 6 channels\nChannel positions                : Front: L C R, Surround: L R, LFE\nSampling rate                    : 48.0 KHz\nStream size                      : 339 MiB (24%)\nAlignment                        : Split accross interleaves\nInterleave, duration             : 96 ms (2.40 video frames)\nInterleave, preload duration     : 96 ms\nLanguage                         : English\n\nInfo Hash                        : 958A13D39DF2296D95CFEE0E590C48290FCCC8FE","torrent":{"xt":"urn:btih:958a13d39df2296d95cfee0e590c48290fccc8fe","amp;dn":"Grease%5B1978%5D-AC3-5.1-Dvdrip-Maka6358.avi","amp;tr":["udp%3A%2F%2Ftracker.openbittorrent.com%3A80","udp%3A%2F%2Fopen.demonii.com%3A1337","udp%3A%2F%2Ftracker.coppersurfer.tk%3A6969","udp%3A%2F%2Fexodus.desync.com%3A6969"],"infoHash":"958a13d39df2296d95cfee0e590c48290fccc8fe","infoHashBuffer":{"type":"Buffer","data":[149,138,19,211,157,242,41,109,149,207,238,14,89,12,72,41,15,204,200,254]},"announce":[],"urlList":[]}}